GIL08_free1_ik
nRows=3
nColumns=375

# SIMM Motion File Header:
name GIL08_free1_ik
datacolumns 375
datarows 3
otherdata 1
range 0.92500000 0.94167000
endheader
time	pelvis_tx	pelvis_ty	pelvis_tz	pelvis_tilt	pelvis_list	pelvis_rotation	hip_flexion_r	hip_adduction_r	hip_rotation_r	knee_angle_r	ankle_angle_r	hip_flexion_l	hip_adduction_l	hip_rotation_l	knee_angle_l	ankle_angle_l	lumbar_extension	lumbar_bending	lumbar_rotation	subtalar_angle_r	mtp_angle_r	subtalar_angle_l	mtp_angle_l	asis_r_px	asis_r_py	asis_r_pz	asis_l_px	asis_l_py	asis_l_pz	midasis_px	midasis_py	midasis_pz	psis_r_px	psis_r_py	psis_r_pz	psis_l_px	psis_l_py	psis_l_pz	hip_r_px	hip_r_py	hip_r_pz	hip_l_px	hip_l_py	hip_l_pz	midhip_px	midhip_py	midhip_pz	epicondLat_r_px	epicondLat_r_py	epicondLat_r_pz	epicondMed_r_px	epicondMed_r_py	epicondMed_r_pz	thighwand_r_px	thighwand_r_py	thighwand_r_pz	upperleg1_r_px	upperleg1_r_py	upperleg1_r_pz	upperleg2_r_px	upperleg2_r_py	upperleg2_r_pz	malleolusLat_r_px	malleolusLat_r_py	malleolusLat_r_pz	malleolusMedv_r_px	malleolusMedv_r_py	malleolusMedv_r_pz	shankwand_r_px	shankwand_r_py	shankwand_r_pz	lowerleg1_r_px	lowerleg1_r_py	lowerleg1_r_pz	knee_r_px	knee_r_py	knee_r_pz	ankle_r_px	ankle_r_py	ankle_r_pz	toe_r_px	toe_r_py	toe_r_pz	epicondLat_l_px	epicondLat_l_py	epicondLat_l_pz	epicondMed_l_px	epicondMed_l_py	epicondMed_l_pz	thighwand_l_px	thighwand_l_py	thighwand_l_pz	upperleg1_l_px	upperleg1_l_py	upperleg1_l_pz	upperleg2_l_px	upperleg2_l_py	upperleg2_l_pz	malleolusLat_l_px	malleolusLat_l_py	malleolusLat_l_pz	malleolusMedv_l_px	malleolusMedv_l_py	malleolusMedv_l_pz	shankwand_l_px	shankwand_l_py	shankwand_l_pz	lowerleg1_l_px	lowerleg1_l_py	lowerleg1_l_pz	knee_l_px	knee_l_py	knee_l_pz	ankle_l_px	ankle_l_py	ankle_l_pz	toe_l_px	toe_l_py	toe_l_pz	subclavicle_r_px	subclavicle_r_py	subclavicle_r_pz	subclavicle_l_px	subclavicle_l_py	subclavicle_l_pz	neck_px	neck_py	neck_pz	sternalnotch_px	sternalnotch_py	sternalnotch_pz	xyphoidprocess_px	xyphoidprocess_py	xyphoidprocess_pz	midhip_tx	midhip_ty	midhip_tz	hip_r_tx	hip_r_ty	hip_r_tz	hip_l_tx	hip_l_ty	hip_l_tz	knee_r_tx	knee_r_ty	knee_r_tz	knee_l_tx	knee_l_ty	knee_l_tz	ankle_r_tx	ankle_r_ty	ankle_r_tz	ankle_l_tx	ankle_l_ty	ankle_l_tz	midasis_tx	midasis_ty	midasis_tz	asis_r_tx	asis_r_ty	asis_r_tz	asis_l_tx	asis_l_ty	asis_l_tz	psis_r_tx	psis_r_ty	psis_r_tz	psis_l_tx	psis_l_ty	psis_l_tz	epicondLat_r_tx	epicondLat_r_ty	epicondLat_r_tz	epicondLat_l_tx	epicondLat_l_ty	epicondLat_l_tz	epicondMed_r_tx	epicondMed_r_ty	epicondMed_r_tz	epicondMed_l_tx	epicondMed_l_ty	epicondMed_l_tz	malleolusLat_r_tx	malleolusLat_r_ty	malleolusLat_r_tz	malleolusLat_l_tx	malleolusLat_l_ty	malleolusLat_l_tz	malleolusMedv_r_tx	malleolusMedv_r_ty	malleolusMedv_r_tz	malleolusMedv_l_tx	malleolusMedv_l_ty	malleolusMedv_l_tz	neck_tx	neck_ty	neck_tz	subclavicle_r_tx	subclavicle_r_ty	subclavicle_r_tz	subclavicle_l_tx	subclavicle_l_ty	subclavicle_l_tz	sternalnotch_tx	sternalnotch_ty	sternalnotch_tz	xyphoidprocess_tx	xyphoidprocess_ty	xyphoidprocess_tz	thighwand_r_tx	thighwand_r_ty	thighwand_r_tz	thighwand_l_tx	thighwand_l_ty	thighwand_l_tz	upperleg1_r_tx	upperleg1_r_ty	upperleg1_r_tz	upperleg1_l_tx	upperleg1_l_ty	upperleg1_l_tz	upperleg2_r_tx	upperleg2_r_ty	upperleg2_r_tz	upperleg2_l_tx	upperleg2_l_ty	upperleg2_l_tz	shankwand_r_tx	shankwand_r_ty	shankwand_r_tz	shankwand_l_tx	shankwand_l_ty	shankwand_l_tz	lowerleg1_r_tx	lowerleg1_r_ty	lowerleg1_r_tz	lowerleg1_l_tx	lowerleg1_l_ty	lowerleg1_l_tz	toe_r_tx	toe_r_ty	toe_r_tz	toe_l_tx	toe_l_ty	toe_l_tz	ground_force_vx	ground_force_vy	ground_force_vz	ground_force_px	ground_force_py	ground_force_pz	ground_force_vx	ground_force_vy	ground_force_vz	ground_force_px	ground_force_py	ground_force_pz	ground_torque_x	ground_torque_y	ground_torque_z	ground_torque_x	ground_torque_y	ground_torque_z	ground_marker_px	ground_marker_py	ground_marker_pz	ground_marker_px	ground_marker_py	ground_marker_pz	ground_marker_px	ground_marker_py	ground_marker_pz	ground_marker_px	ground_marker_py	ground_marker_pz	ground_marker_px	ground_marker_py	ground_marker_pz	ground_marker_px	ground_marker_py	ground_marker_pz	ground_marker_px	ground_marker_py	ground_marker_pz	ground_marker_px	ground_marker_py	ground_marker_pz	ground_marker_px	ground_marker_py	ground_marker_pz	ground_marker_px	ground_marker_py	ground_marker_pz	ground_marker_px	ground_marker_py	ground_marker_pz	ground_marker_px	ground_marker_py	ground_marker_pz	ground_marker_px	ground_marker_py	ground_marker_pz	ground_marker_px	ground_marker_py	ground_marker_pz	ground_marker_px	ground_marker_py	ground_marker_pz	ground_marker_px	ground_marker_py	ground_marker_pz	ground_marker_px	ground_marker_py	ground_marker_pz	ground_marker_px	ground_marker_py	ground_marker_pz	ground_marker_px	ground_marker_py	ground_marker_pz	ground_marker_px	ground_marker_py	ground_marker_pz	ground_marker_px	ground_marker_py	ground_marker_pz	ground_marker_px	ground_marker_py	ground_marker_pz	ground_marker_px	ground_marker_py	ground_marker_pz	ground_marker_px	ground_marker_py	ground_marker_pz	ground_marker_px	ground_marker_py	ground_marker_pz	ground_marker_px	ground_marker_py	ground_marker_pz	ground_marker_px	ground_marker_py	ground_marker_pz	ground_marker_px	ground_marker_py	ground_marker_pz	ground_marker_px	ground_marker_py	ground_marker_pz	ground_marker_px	ground_marker_py	ground_marker_pz	ground_marker_px	ground_marker_py	ground_marker_pz	ground_marker_px	ground_marker_py	ground_marker_pz	ground_marker_px	ground_marker_py	ground_marker_pz	ground_marker_px	ground_marker_py	ground_marker_pz	ground_marker_px	ground_marker_py	ground_marker_pz	ground_marker_px	ground_marker_py	ground_marker_pz	ground_marker_px	ground_marker_py	ground_marker_pz
      0.92500000	      2.23294421	      0.96785139	     -0.24614752	      5.09681818	     -0.04094275	      7.50450712	     -2.84258526	      1.65518558	      6.04142852	    -12.50429720	      9.07981789	     11.53711676	     -2.19429527	     -0.14879578	    -44.39926339	      9.26977901	     -8.16536488	      3.25503906	      5.95125466	      0.00000000	      0.00000000	      0.00000000	      0.00000000	      2.29202985	      0.99283598	     -0.15396357	      2.25701059	      0.99337899	     -0.36401823	      2.24444719	      0.96887627	     -0.24766884	      2.08136438	      0.98577761	     -0.18252067	      2.06448893	      0.98653645	     -0.26905891	      2.18877335	      0.90875164	     -0.16954676	      2.17070669	      0.90704142	     -0.30730436	      2.17974002	      0.90789653	     -0.23842556	      2.26487043	      0.47452541	     -0.14231347	      2.21171866	      0.49460253	     -0.24866283	      2.31377696	      0.59367412	     -0.07552247	      2.30334826	      0.65445445	     -0.14640912	      2.29991094	      0.57313714	     -0.16953743	      2.12405950	      0.06748917	     -0.12191233	      2.10711605	      0.06786899	     -0.18832513	      2.17642334	      0.13301784	     -0.06677209	      2.16039488	      0.19406198	     -0.12548829	      2.20103544	      0.49486142	     -0.17779382	      2.12801364	      0.08468584	     -0.16540410	      2.23786124	      0.04249331	     -0.18860796	      2.31329173	      0.50303142	     -0.41115233	      2.31137506	      0.50202519	     -0.30295437	      2.41668074	      0.67630066	     -0.36525098	      2.32304939	      0.71184719	     -0.38862582	      2.33793854	      0.62646037	     -0.39301672	      2.07346019	      0.12371122	     -0.35252344	      2.09685714	      0.12422008	     -0.28671655	      2.22890666	      0.16416590	     -0.33531582	      2.19336659	      0.24101100	     -0.33811004	      2.29047404	      0.50612067	     -0.33423395	      2.09679361	      0.13754579	     -0.31499489	      2.19503810	      0.05699764	     -0.35024099	      2.21347665	      1.37242501	     -0.14342709	      2.18465374	      1.38416658	     -0.29593194	      2.09806241	      1.44750414	     -0.20603736	      2.18620141	      1.37944647	     -0.22120207	      2.22655774	      1.18073400	     -0.25092147	      2.17388200	      0.90298600	     -0.23608300	      2.18192800	      0.89270000	     -0.18092200	      2.16788500	      0.89355200	     -0.28655900	      2.19840100	      0.48497000	     -0.19011100	      2.28627100	      0.49036400	     -0.32700300	      2.12338000	      0.07017600	     -0.18802100	      2.09592200	      0.12118900	     -0.29905200	      2.25169800	      0.99105300	     -0.24315800	      2.26529300	      0.99022800	     -0.14088700	      2.23810300	      0.99187900	     -0.34542900	      2.05682000	      1.01510700	     -0.18514300	      2.04514100	      1.01460900	     -0.26963900	      2.21254500	      0.48423900	     -0.13232100	      2.27769300	      0.49374200	     -0.38578500	      2.17917000	      0.50070400	     -0.24311100	      2.29536400	      0.48493000	     -0.27715100	      2.12621100	      0.06985500	     -0.15012900	      2.08291900	      0.12508500	     -0.33614600	      2.12074200	      0.07790900	     -0.21992900	      2.11041500	      0.13128100	     -0.27224800	      2.09962600	      1.46898700	     -0.20551100	      2.21246200	      1.39530300	     -0.14106300	      2.18884300	      1.40946200	     -0.29466900	      2.18782800	      1.40338200	     -0.21982700	      2.23212000	      1.20580200	     -0.25170200	      2.24861000	      0.59079600	     -0.05007300	      2.39764700	      0.65012600	     -0.36000600	      2.25745000	      0.65323300	     -0.12027600	      2.30415800	      0.68614500	     -0.38280700	      2.25362000	      0.57215200	     -0.14553700	      2.31882900	      0.59952600	     -0.37958400	      2.16447300	      0.14067300	     -0.08638000	      2.23203700	      0.17836300	     -0.32846900	      2.14607600	      0.20258700	     -0.14169400	      2.19699700	      0.25321700	     -0.32505600	      2.24456400	      0.04246700	     -0.21601700	      2.19802800	      0.06319000	     -0.32516700	     -8.30365197	    506.97229072	    -14.42796753	      2.18075073	      0.00000000	     -0.19353069	      0.00000000	      0.00000000	      0.00000000	      1.68068213	      0.00000000	     -0.25518350	      0.00000000	      0.90298071	      0.00000000	      0.00000000	      0.00000000	      0.00000000	      2.17388177	      0.90298551	     -0.23608267	      2.18192768	      0.89269960	     -0.18092160	      2.16788507	      0.89355195	     -0.28655887	      2.19840145	      0.48496982	     -0.19011129	      2.28627086	      0.49036384	     -0.32700342	      2.12337971	      0.07017583	     -0.18802150	      2.09592199	      0.12118950	     -0.29905158	      2.25169802	      0.99105346	     -0.24315824	      2.26529312	      0.99022824	     -0.14088705	      2.23810267	      0.99187863	     -0.34542942	      2.05681992	      1.01510704	     -0.18514268	      2.04514122	      1.01460898	     -0.26963899	      2.21254539	      0.48423877	     -0.13232148	      2.27769327	      0.49374175	     -0.38578495	      2.17916965	      0.50070411	     -0.24311121	      2.29536390	      0.48493046	     -0.27715150	      2.12621140	      0.06985456	     -0.15012853	      2.08291936	      0.12508503	     -0.33614621	      2.12074208	      0.07790922	     -0.21992862	      2.11041522	      0.13128102	     -0.27224773	      2.09962606	      1.46898711	     -0.20551084	      2.21246219	      1.39530349	     -0.14106268	      2.18884277	      1.40946186	     -0.29466864	      2.18782830	      1.40338171	     -0.21982682	      2.23212028	      1.20580220	     -0.25170162	      2.24860954	      0.59079564	     -0.05007335	      2.39764738	      0.65012568	     -0.36000556	      2.25744987	      0.65323293	     -0.12027619	      2.30415845	      0.68614525	     -0.38280699	      2.25362039	      0.57215172	     -0.14553723	      2.31882858	      0.59952563	     -0.37958407	      2.16447258	      0.14067268	     -0.08637973	      2.23203659	      0.17836347	     -0.32846910	      2.14607573	      0.20258725	     -0.14169441	      2.19699740	      0.25321698	     -0.32505646	      2.24456406	      0.04246687	     -0.21601714	      2.19802809	      0.06319012	     -0.32516652
      0.93333000	      2.24140513	      0.96755690	     -0.24542098	      5.15012552	      0.04194431	      7.21872562	     -3.57815310	      1.59940447	      6.00497412	    -12.24804730	      9.42367148	     12.18369036	     -1.96245708	     -0.04994173	    -43.26454104	      9.76770248	     -8.30811107	      3.01654048	      6.33853885	      0.00000000	      0.00000000	      0.00000000	      0.00000000	      2.30002073	      0.99242204	     -0.15290524	      2.26601759	      0.99332933	     -0.36312553	      2.25291438	      0.96859530	     -0.24688467	      2.08950257	      0.98522259	     -0.18249479	      2.07304527	      0.98612924	     -0.26911210	      2.19691949	      0.90827173	     -0.16914636	      2.17952109	      0.90680494	     -0.30699276	      2.18822029	      0.90753834	     -0.23806956	      2.26777917	      0.47320573	     -0.14119432	      2.21546738	      0.49382499	     -0.24785598	      2.31769742	      0.59182345	     -0.07420696	      2.30838070	      0.65266968	     -0.14519187	      2.30412352	      0.57138123	     -0.16828518	      2.12390479	      0.06747010	     -0.12174851	      2.10734436	      0.06799541	     -0.18825686	      2.17643223	      0.13259504	     -0.06628649	      2.16118802	      0.19377387	     -0.12507131	      2.20433344	      0.49428346	     -0.17703561	      2.12823351	      0.08465111	     -0.16521079	      2.23817308	      0.04232011	     -0.18771631	      2.32793259	      0.50461504	     -0.40973651	      2.32521308	      0.50358174	     -0.30155601	      2.42879493	      0.67916397	     -0.36306842	      2.33490469	      0.71353597	     -0.38715074	      2.35089454	      0.62834241	     -0.39142370	      2.09982840	      0.11849089	     -0.35399313	      2.12267345	      0.11956148	     -0.28799934	      2.25375310	      0.16386650	     -0.33543163	      2.21578548	      0.23953849	     -0.33830988	      2.30429031	      0.50761737	     -0.33295943	      2.12240639	      0.13295957	     -0.31624227	      2.22407155	      0.05663679	     -0.35118943	      2.22228719	      1.37217046	     -0.14390333	      2.19315227	      1.38360672	     -0.29637208	      2.10679904	      1.44720403	     -0.20643185	      2.19485366	      1.37904592	     -0.22163566	      2.23499479	      1.18023898	     -0.25101275	      2.18226800	      0.90283500	     -0.23602800	      2.18996900	      0.89238600	     -0.18105400	      2.17644500	      0.89341600	     -0.28675700	      2.20168800	      0.48450500	     -0.18974100	      2.30018100	      0.49137700	     -0.32665700	      2.12356300	      0.07019000	     -0.18807200	      2.12191200	      0.11626100	     -0.29900400	      2.25996300	      0.99090800	     -0.24277000	      2.27306300	      0.98991000	     -0.14038100	      2.24686300	      0.99190600	     -0.34516000	      2.06478600	      1.01474500	     -0.18559600	      2.05353200	      1.01429400	     -0.27013600	      2.21550500	      0.48366900	     -0.13187400	      2.29202500	      0.49470700	     -0.38550100	      2.18298200	      0.50034600	     -0.24264300	      2.30852900	      0.48635100	     -0.27669400	      2.12635100	      0.06981700	     -0.15017600	      2.10902900	      0.11964200	     -0.33619000	      2.12104800	      0.07799200	     -0.21986700	      2.13570100	      0.12690300	     -0.27209400	      2.10842300	      1.46876500	     -0.20598300	      2.22123400	      1.39501000	     -0.14158600	      2.19741100	      1.40887500	     -0.29514300	      2.19649700	      1.40296000	     -0.22030800	      2.24038300	      1.20523200	     -0.25182300	      2.25235500	      0.59023100	     -0.04953800	      2.40942300	      0.65296800	     -0.35851200	      2.26199000	      0.65246100	     -0.11974200	      2.31577400	      0.68774300	     -0.38213000	      2.25760500	      0.57134700	     -0.14488500	      2.33149600	      0.60131000	     -0.37883000	      2.16509400	      0.14035200	     -0.08628200	      2.25620700	      0.17803400	     -0.32767600	      2.14709600	      0.20243900	     -0.14145400	      2.21872700	      0.25160800	     -0.32459500	      2.24455300	      0.04238100	     -0.21602000	      2.22641600	      0.06253800	     -0.32474900	     -6.26605155	    509.39073874	    -14.84120786	      2.18318066	      0.00000000	     -0.19400787	      0.00000000	      0.00000000	      0.00000000	      1.68146680	      0.00000000	     -0.25520233	      0.00000000	      1.02708826	      0.00000000	      0.00000000	      0.00000000	      0.00000000	      2.18226767	      0.90283513	     -0.23602784	      2.18996930	      0.89238554	     -0.18105391	      2.17644525	      0.89341599	     -0.28675726	      2.20168829	      0.48450497	     -0.18974127	      2.30018139	      0.49137712	     -0.32665685	      2.12356257	      0.07019026	     -0.18807192	      2.12191248	      0.11626054	     -0.29900384	      2.25996327	      0.99090803	     -0.24277049	      2.27306318	      0.98990989	     -0.14038102	      2.24686337	      0.99190623	     -0.34515995	      2.06478596	      1.01474512	     -0.18559636	      2.05353165	      1.01429355	     -0.27013612	      2.21550465	      0.48366943	     -0.13187367	      2.29202485	      0.49470666	     -0.38550103	      2.18298221	      0.50034624	     -0.24264263	      2.30852890	      0.48635089	     -0.27669382	      2.12635136	      0.06981706	     -0.15017623	      2.10902858	      0.11964223	     -0.33619004	      2.12104845	      0.07799176	     -0.21986683	      2.13570070	      0.12690334	     -0.27209368	      2.10842347	      1.46876490	     -0.20598258	      2.22123432	      1.39500952	     -0.14158577	      2.19741130	      1.40887463	     -0.29514307	      2.19649744	      1.40296006	     -0.22030810	      2.24038267	      1.20523214	     -0.25182265	      2.25235534	      0.59023058	     -0.04953759	      2.40942287	      0.65296757	     -0.35851181	      2.26198959	      0.65246058	     -0.11974157	      2.31577373	      0.68774283	     -0.38212991	      2.25760460	      0.57134682	     -0.14488544	      2.33149648	      0.60131025	     -0.37883011	      2.16509390	      0.14035174	     -0.08628196	      2.25620747	      0.17803404	     -0.32767600	      2.14709592	      0.20243910	     -0.14145420	      2.21872735	      0.25160778	     -0.32459503	      2.24455333	      0.04238066	     -0.21602044	      2.22641635	      0.06253848	     -0.32474902
      0.94167000	      2.24981639	      0.96715036	     -0.24478190	      5.20348252	      0.12054565	      6.94719602	     -4.30795216	      1.54601155	      5.99287914	    -12.00065388	      9.78327467	     12.80997995	     -1.74092731	      0.05149715	    -42.06595224	     10.22635819	     -8.44418466	      2.78176956	      6.77126163	      0.00000000	      0.00000000	      0.00000000	      0.00000000	      2.30798314	      0.99190324	     -0.15195330	      2.27494552	      0.99315678	     -0.36232571	      2.26133127	      0.96820198	     -0.24619081	      2.09760994	      0.98456319	     -0.18252308	      2.08155000	      0.98561025	     -0.26921337	      2.20503580	      0.90768737	     -0.16881893	      2.18827237	      0.90645214	     -0.30674625	      2.19665409	      0.90706976	     -0.23778259	      2.27070195	      0.47184874	     -0.14022734	      2.21916122	      0.49299665	     -0.24716053	      2.32166165	      0.58992756	     -0.07307226	      2.31340298	      0.65082658	     -0.14414283	      2.30831689	      0.56957635	     -0.16720298	      2.12377037	      0.06743679	     -0.12163095	      2.10754823	      0.06810239	     -0.18822137	      2.17649928	      0.13215640	     -0.06588637	      2.16200335	      0.19346206	     -0.12472832	      2.20763135	      0.49365797	     -0.17638420	      2.12844413	      0.08459688	     -0.16506575	      2.23846579	      0.04214862	     -0.18694048	      2.34230223	      0.50609753	     -0.40838264	      2.33880062	      0.50502546	     -0.30022500	      2.44069434	      0.68185448	     -0.36098076	      2.34657359	      0.71508643	     -0.38575355	      2.36362657	      0.63009331	     -0.38990591	      2.12644346	      0.11344430	     -0.35541584	      2.14872940	      0.11507248	     -0.28924252	      2.27864547	      0.16379649	     -0.33552879	      2.23823487	      0.23818875	     -0.33850342	      2.31783761	      0.50901303	     -0.33174809	      2.14824082	      0.12853673	     -0.31745099	      2.25315179	      0.05657388	     -0.35205316	      2.23111308	      1.37180544	     -0.14450880	      2.20150626	      1.38294167	     -0.29690885	      2.11547935	      1.44678628	     -0.20683121	      2.20343973	      1.37853651	     -0.22216874	      2.24335421	      1.17964110	     -0.25125440	      2.19056900	      0.90250700	     -0.23593700	      2.19800400	      0.89198500	     -0.18121100	      2.18496400	      0.89318100	     -0.28697400	      2.20499400	      0.48399100	     -0.18943600	      2.31389200	      0.49228400	     -0.32627800	      2.12374900	      0.07020500	     -0.18812900	      2.14810800	      0.11148500	     -0.29911400	      2.26819800	      0.99066800	     -0.24244200	      2.28083300	      0.98951000	     -0.13997200	      2.25556400	      0.99182700	     -0.34491300	      2.07275100	      1.01431000	     -0.18606300	      2.06190700	      1.01386300	     -0.27063900	      2.21852800	      0.48305500	     -0.13150300	      2.30613800	      0.49556500	     -0.38517900	      2.18680500	      0.49987900	     -0.24225900	      2.32154700	      0.48755900	     -0.27624800	      2.12652200	      0.06978000	     -0.15023300	      2.13533800	      0.11438600	     -0.33638000	      2.12098700	      0.07801600	     -0.21991200	      2.16101600	      0.12258800	     -0.27200700	      2.11717200	      1.46850100	     -0.20647600	      2.22999200	      1.39455800	     -0.14210700	      2.20592000	      1.40825400	     -0.29569800	      2.20513000	      1.40244900	     -0.22082500	      2.24852800	      1.20458000	     -0.25212400	      2.25622000	      0.58964000	     -0.04911400	      2.42104900	      0.65554500	     -0.35707600	      2.26652900	      0.65161900	     -0.11935700	      2.32722700	      0.68910900	     -0.38145600	      2.26163000	      0.57049500	     -0.14438000	      2.34397400	      0.60289500	     -0.37809200	      2.16578400	      0.14000600	     -0.08624200	      2.28036300	      0.17789300	     -0.32707000	      2.14818800	      0.20225300	     -0.14128300	      2.24042300	      0.25010900	     -0.32430800	      2.24459700	      0.04230700	     -0.21604200	      2.25484700	      0.06213200	     -0.32439400	     -4.34334400	    512.75840670	    -15.12052820	      2.18574072	      0.00000000	     -0.19457913	      0.00000000	      0.00000000	      0.00000000	      1.68225684	      0.00000000	     -0.25519791	      0.00000000	      1.15283057	      0.00000000	      0.00000000	      0.00000000	      0.00000000	      2.19056940	      0.90250719	     -0.23593661	      2.19800448	      0.89198542	     -0.18121125	      2.18496418	      0.89318079	     -0.28697360	      2.20499420	      0.48399070	     -0.18943574	      2.31389213	      0.49228436	     -0.32627755	      2.12374902	      0.07020454	     -0.18812914	      2.14810824	      0.11148452	     -0.29911390	      2.26819801	      0.99066842	     -0.24244249	      2.28083253	      0.98951024	     -0.13997197	      2.25556374	      0.99182659	     -0.34491301	      2.07275057	      1.01430988	     -0.18606259	      2.06190705	      1.01386321	     -0.27063918	      2.21852756	      0.48305473	     -0.13150285	      2.30613804	      0.49556535	     -0.38517883	      2.18680453	      0.49987867	     -0.24225888	      2.32154703	      0.48755902	     -0.27624846	      2.12652183	      0.06977981	     -0.15023281	      2.13533783	      0.11438581	     -0.33637989	      2.12098670	      0.07801589	     -0.21991177	      2.16101623	      0.12258775	     -0.27200672	      2.11717200	      1.46850085	     -0.20647591	      2.22999191	      1.39455831	     -0.14210694	      2.20592022	      1.40825355	     -0.29569826	      2.20512962	      1.40244913	     -0.22082523	      2.24852848	      1.20457959	     -0.25212407	      2.25621963	      0.58963954	     -0.04911369	      2.42104936	      0.65554470	     -0.35707644	      2.26652932	      0.65161932	     -0.11935712	      2.32722664	      0.68910927	     -0.38145587	      2.26163006	      0.57049465	     -0.14438012	      2.34397364	      0.60289514	     -0.37809250	      2.16578388	      0.14000623	     -0.08624247	      2.28036261	      0.17789349	     -0.32706961	      2.14818811	      0.20225334	     -0.14128269	      2.24042344	      0.25010866	     -0.32430807	      2.24459672	      0.04230744	     -0.21604225	      2.25484705	      0.06213168	     -0.32439449
